<?xml version="1.0" encoding="iso-8859-1"?>
<!-- Uploaded to: SVG Repo, www.svgrepo.com, Generator: SVG Repo Mixer Tools -->
<!DOCTYPE svg PUBLIC "-//W3C//DTD SVG 1.1//EN" "http://www.w3.org/Graphics/SVG/1.1/DTD/svg11.dtd">
<svg fill="#000000" height="800px" width="800px" version="1.1" id="Capa_1" xmlns="http://www.w3.org/2000/svg" xmlns:xlink="http://www.w3.org/1999/xlink" 
	 viewBox="0 0 205.594 205.594" xml:space="preserve">
<path d="M177.986,83.99v89.205c0,2.762-2.239,5-5,5h-15.803v22.398c0,2.762-2.239,5-5,5H53.092c-2.761,0-5-2.238-5-5v-22.398H32.608
	c-2.761,0-5-2.238-5-5V83.99c0-22.696,15.833-41.743,37.03-46.726l-0.69,3.041l-6.764,24.85c-0.579,2.126,0.302,4.381,2.17,5.551
	l7.9,4.948L56.138,89.133c-1.647,1.997-1.498,4.921,0.344,6.739l42.802,42.265c0.035,0.035,0.077,0.058,0.113,0.092
	c0.167,0.156,0.346,0.3,0.535,0.432c0.062,0.044,0.121,0.091,0.185,0.132c0.238,0.151,0.486,0.289,0.752,0.4
	c0.008,0.003,0.016,0.004,0.024,0.007c0.213,0.088,0.436,0.143,0.658,0.201c0.095,0.025,0.187,0.065,0.282,0.084
	c0.272,0.053,0.551,0.074,0.829,0.081c0.045,0.001,0.089,0.013,0.134,0.013c0,0,0.001,0,0.001,0h0.001
	c0.045,0,0.089-0.012,0.134-0.013c0.278-0.008,0.556-0.028,0.829-0.081c0.095-0.019,0.188-0.06,0.282-0.084
	c0.222-0.057,0.445-0.113,0.658-0.201c0.008-0.003,0.016-0.004,0.024-0.007c0.266-0.111,0.514-0.249,0.752-0.4
	c0.063-0.041,0.122-0.088,0.184-0.131c0.189-0.133,0.368-0.277,0.535-0.433c0.036-0.033,0.078-0.057,0.113-0.092l42.802-42.265
	c1.842-1.818,1.991-4.742,0.344-6.739l-11.116-13.479l7.9-4.948c1.868-1.17,2.749-3.424,2.17-5.551l-6.764-24.85l-0.69-3.041
	C162.152,42.247,177.986,61.294,177.986,83.99z M107.797,122.615l31.036-30.646l-11.832-14.346c-0.916-1.11-1.309-2.562-1.078-3.982
	c0.23-1.42,1.062-2.673,2.281-3.437l9.583-6.003l-5.817-21.372c-0.019-0.068-0.036-0.138-0.052-0.207l-1.448-6.38L126.06,46.76
	l-16.788-7.917V27.894c0-2.762-2.239-5-5-5h-5.535c-1.543,0-2.799-1.256-2.799-2.799v-7.296c0-1.543,1.255-2.799,2.799-2.799h7.799
	c1.543,0,2.799,1.256,2.799,2.799c0,2.762,2.239,5,5,5s5-2.238,5-5C119.335,5.741,113.594,0,106.536,0h-7.799
	C91.68,0,85.939,5.741,85.939,12.799v7.296c0,7.058,5.742,12.799,12.799,12.799h0.535v5.749l-19.648,8.331l-4.499-10.733
	l-1.449,6.381c-0.016,0.069-0.033,0.139-0.052,0.207l-5.817,21.372l9.582,6.003c1.22,0.764,2.051,2.017,2.281,3.437
	c0.23,1.421-0.163,2.872-1.078,3.982L66.761,91.969l31.036,30.646V90.324L83.491,56.197l20.607-8.739l18.093,8.533l-14.393,34.333
	V122.615z"/>
</svg>